<svg width="228" height="48" viewBox="0 0 228 48" fill="none" xmlns="http://www.w3.org/2000/svg">
<rect width="228" height="48" rx="8" fill="#F4333D"/>
<path d="M20.1942 27.624H24.2262V30H17.1162V17.364H20.1942V27.624Z" fill="white"/>
<path d="M30.2663 30.144C29.2823 30.144 28.3943 29.934 27.6023 29.514C26.8223 29.094 26.2043 28.494 25.7483 27.714C25.3043 26.934 25.0823 26.022 25.0823 24.978C25.0823 23.946 25.3103 23.04 25.7663 22.26C26.2223 21.468 26.8463 20.862 27.6383 20.442C28.4303 20.022 29.3183 19.812 30.3023 19.812C31.2863 19.812 32.1743 20.022 32.9663 20.442C33.7583 20.862 34.3823 21.468 34.8383 22.26C35.2943 23.04 35.5223 23.946 35.5223 24.978C35.5223 26.01 35.2883 26.922 34.8203 27.714C34.3643 28.494 33.7343 29.094 32.9303 29.514C32.1383 29.934 31.2503 30.144 30.2663 30.144ZM30.2663 27.48C30.8543 27.48 31.3523 27.264 31.7603 26.832C32.1803 26.4 32.3903 25.782 32.3903 24.978C32.3903 24.174 32.1863 23.556 31.7783 23.124C31.3823 22.692 30.8903 22.476 30.3023 22.476C29.7023 22.476 29.2043 22.692 28.8083 23.124C28.4123 23.544 28.2143 24.162 28.2143 24.978C28.2143 25.782 28.4063 26.4 28.7903 26.832C29.1863 27.264 29.6783 27.48 30.2663 27.48Z" fill="white"/>
<path d="M40.9713 19.812C41.6793 19.812 42.2973 19.956 42.8253 20.244C43.3653 20.532 43.7793 20.91 44.0673 21.378V19.956H47.1453V29.982C47.1453 30.906 46.9593 31.74 46.5873 32.484C46.2273 33.24 45.6693 33.84 44.9133 34.284C44.1693 34.728 43.2393 34.95 42.1233 34.95C40.6353 34.95 39.4293 34.596 38.5053 33.888C37.5813 33.192 37.0533 32.244 36.9213 31.044H39.9633C40.0593 31.428 40.2873 31.728 40.6473 31.944C41.0073 32.172 41.4513 32.286 41.9793 32.286C42.6153 32.286 43.1193 32.1 43.4913 31.728C43.8753 31.368 44.0673 30.786 44.0673 29.982V28.56C43.7673 29.028 43.3533 29.412 42.8253 29.712C42.2973 30 41.6793 30.144 40.9713 30.144C40.1433 30.144 39.3933 29.934 38.7213 29.514C38.0493 29.082 37.5153 28.476 37.1193 27.696C36.7353 26.904 36.5433 25.992 36.5433 24.96C36.5433 23.928 36.7353 23.022 37.1193 22.242C37.5153 21.462 38.0493 20.862 38.7213 20.442C39.3933 20.022 40.1433 19.812 40.9713 19.812ZM44.0673 24.978C44.0673 24.21 43.8513 23.604 43.4193 23.16C42.9993 22.716 42.4833 22.494 41.8713 22.494C41.2593 22.494 40.7373 22.716 40.3053 23.16C39.8853 23.592 39.6753 24.192 39.6753 24.96C39.6753 25.728 39.8853 26.34 40.3053 26.796C40.7373 27.24 41.2593 27.462 41.8713 27.462C42.4833 27.462 42.9993 27.24 43.4193 26.796C43.8513 26.352 44.0673 25.746 44.0673 24.978Z" fill="white"/>
<path d="M54.7345 18.912C54.1945 18.912 53.7505 18.756 53.4025 18.444C53.0665 18.12 52.8985 17.724 52.8985 17.256C52.8985 16.776 53.0665 16.38 53.4025 16.068C53.7505 15.744 54.1945 15.582 54.7345 15.582C55.2625 15.582 55.6945 15.744 56.0305 16.068C56.3785 16.38 56.5525 16.776 56.5525 17.256C56.5525 17.724 56.3785 18.12 56.0305 18.444C55.6945 18.756 55.2625 18.912 54.7345 18.912ZM56.2645 19.956V30H53.1865V19.956H56.2645Z" fill="white"/>
<path d="M64.6151 19.848C65.7911 19.848 66.7271 20.232 67.4231 21C68.1311 21.756 68.4851 22.8 68.4851 24.132V30H65.4251V24.546C65.4251 23.874 65.2511 23.352 64.9031 22.98C64.5551 22.608 64.0871 22.422 63.4991 22.422C62.9111 22.422 62.4431 22.608 62.0951 22.98C61.7471 23.352 61.5731 23.874 61.5731 24.546V30H58.4951V19.956H61.5731V21.288C61.8851 20.844 62.3051 20.496 62.8331 20.244C63.3611 19.98 63.9551 19.848 64.6151 19.848Z" fill="white"/>
<path d="M88.8565 19.956L86.1385 30H82.7365L81.1525 23.484L79.5145 30H76.1305L73.3945 19.956H76.4725L77.8945 27.138L79.5865 19.956H82.8445L84.5545 27.102L85.9585 19.956H88.8565Z" fill="white"/>
<path d="M91.5783 18.912C91.0383 18.912 90.5943 18.756 90.2463 18.444C89.9103 18.12 89.7423 17.724 89.7423 17.256C89.7423 16.776 89.9103 16.38 90.2463 16.068C90.5943 15.744 91.0383 15.582 91.5783 15.582C92.1063 15.582 92.5383 15.744 92.8743 16.068C93.2223 16.38 93.3963 16.776 93.3963 17.256C93.3963 17.724 93.2223 18.12 92.8743 18.444C92.5383 18.756 92.1063 18.912 91.5783 18.912ZM93.1083 19.956V30H90.0303V19.956H93.1083Z" fill="white"/>
<path d="M100.937 27.39V30H99.3709C98.2549 30 97.3849 29.73 96.7609 29.19C96.1369 28.638 95.8249 27.744 95.8249 26.508V22.512H94.6009V19.956H95.8249V17.508H98.9029V19.956H100.919V22.512H98.9029V26.544C98.9029 26.844 98.9749 27.06 99.1189 27.192C99.2629 27.324 99.5029 27.39 99.8389 27.39H100.937Z" fill="white"/>
<path d="M108.825 19.848C109.977 19.848 110.901 20.232 111.597 21C112.293 21.756 112.641 22.8 112.641 24.132V30H109.581V24.546C109.581 23.874 109.407 23.352 109.059 22.98C108.711 22.608 108.243 22.422 107.655 22.422C107.067 22.422 106.599 22.608 106.251 22.98C105.903 23.352 105.729 23.874 105.729 24.546V30H102.651V16.68H105.729V21.306C106.041 20.862 106.467 20.508 107.007 20.244C107.547 19.98 108.153 19.848 108.825 19.848Z" fill="white"/>
<path d="M124.19 30.2612C127.07 30.2612 128.822 28.7561 128.822 26.3688C128.822 24.7341 127.823 23.6183 125.76 23.1642L123.736 22.71C122.97 22.5284 122.568 22.2819 122.568 21.8278C122.568 21.3737 122.944 21.0882 123.865 21.0882C124.933 21.1255 125.953 21.5391 126.746 22.2559L128.445 19.7649C127.108 18.8294 125.495 18.3723 123.865 18.4674C121.167 18.4674 119.35 19.7649 119.35 22.0613C119.333 22.8765 119.621 23.6687 120.159 24.2813C120.698 24.8939 121.446 25.2823 122.257 25.3698L124.268 25.8499C125.267 26.0704 125.565 26.3688 125.565 26.7581C125.565 27.1473 125.163 27.5236 124.268 27.5236C122.999 27.4987 121.776 27.0409 120.803 26.2261L119 28.6394C120.485 29.7749 122.323 30.3493 124.19 30.2612V30.2612Z" fill="white"/>
<path d="M132.181 22.2938C132.572 22.2938 132.954 22.1778 133.278 21.9606C133.603 21.7433 133.856 21.4345 134.004 21.0734C134.153 20.7123 134.192 20.3151 134.114 19.9322C134.037 19.5493 133.848 19.1979 133.571 18.9226C133.294 18.6474 132.941 18.4606 132.558 18.3859C132.175 18.3113 131.778 18.3522 131.418 18.5035C131.057 18.6547 130.75 18.9095 130.535 19.2355C130.32 19.5616 130.207 19.9441 130.209 20.3347C130.206 20.5941 130.254 20.8515 130.352 21.0916C130.45 21.3318 130.596 21.5497 130.78 21.7325C130.964 21.9153 131.183 22.0592 131.423 22.1557C131.664 22.2521 131.922 22.2991 132.181 22.2938Z" fill="white"/>
<path d="M130.055 30.0002H134.31L133.415 22.9551C132.611 23.1627 131.767 23.1627 130.963 22.9551L130.055 30.0002Z" fill="white"/>
<path d="M136.307 29.9992H139.758V23.9012C139.758 22.4092 140.484 21.488 141.886 21.488C143.287 21.488 143.923 22.2535 143.923 23.9012V29.9992H147.322V23.0449C147.322 20.0089 145.804 18.452 143.209 18.452C142.533 18.4226 141.861 18.567 141.257 18.8713C140.653 19.1757 140.137 19.6299 139.758 20.1906V19.464C139.768 19.3576 139.754 19.2502 139.718 19.1497C139.682 19.0491 139.624 18.9577 139.548 18.8822C139.473 18.8066 139.381 18.7486 139.281 18.7124C139.18 18.6761 139.073 18.6625 138.966 18.6725H136.372L136.307 29.9992Z" fill="white"/>
<path d="M158.441 18.6739C158.334 18.6639 158.227 18.6775 158.127 18.7138C158.026 18.75 157.935 18.808 157.859 18.8836C157.783 18.9591 157.725 19.0505 157.689 19.1511C157.653 19.2516 157.639 19.359 157.649 19.4654V20.153C157.272 19.597 156.757 19.1482 156.154 18.8503C155.552 18.5525 154.882 18.4157 154.211 18.4534C152.814 18.5878 151.518 19.2377 150.574 20.2764C149.631 21.3151 149.108 22.668 149.108 24.0713C149.108 25.4746 149.631 26.8275 150.574 27.8662C151.518 28.9049 152.814 29.5548 154.211 29.6892C154.86 29.7301 155.51 29.6175 156.107 29.3606C156.704 29.1036 157.233 28.7095 157.649 28.2101V28.9627C157.65 29.3181 157.578 29.6699 157.437 29.9963C157.296 30.3226 157.09 30.6165 156.831 30.8598C156.572 31.1031 156.265 31.2906 155.931 31.4106C155.596 31.5306 155.241 31.5807 154.886 31.5576C153.612 31.5823 152.377 31.118 151.435 30.2601L149.657 32.855C151.171 33.9994 153.043 34.5695 154.938 34.4638C158.337 34.4638 161.101 32.7642 161.101 28.4956V18.6739H158.441ZM155.119 26.6921C154.606 26.6921 154.105 26.54 153.678 26.2548C153.251 25.9697 152.918 25.5644 152.722 25.0903C152.526 24.6161 152.474 24.0944 152.574 23.591C152.675 23.0877 152.922 22.6253 153.285 22.2624C153.647 21.8995 154.11 21.6524 154.613 21.5522C155.117 21.4521 155.638 21.5035 156.112 21.6999C156.587 21.8963 156.992 22.2289 157.277 22.6556C157.562 23.0823 157.714 23.584 157.714 24.0973C157.714 24.7855 157.441 25.4455 156.954 25.9321C156.468 26.4188 155.808 26.6921 155.119 26.6921Z" fill="white"/>
<path d="M170.6 18.4524C169.908 18.4218 169.219 18.5606 168.592 18.8568C167.966 19.153 167.421 19.5976 167.006 20.1521V19.4644C167.016 19.358 167.002 19.2507 166.966 19.1501C166.93 19.0495 166.872 18.9582 166.796 18.8826C166.721 18.807 166.629 18.749 166.529 18.7128C166.428 18.6766 166.321 18.663 166.215 18.673H163.62V34.1515H167.006V28.7541C167.457 29.2545 168.013 29.6489 168.634 29.9091C169.256 30.1693 169.927 30.2888 170.6 30.2591C171.342 30.2402 172.073 30.0705 172.747 29.7604C173.422 29.4503 174.026 29.0063 174.524 28.4554C175.021 27.9044 175.401 27.258 175.641 26.5555C175.881 25.853 175.976 25.109 175.919 24.3687C175.98 23.6265 175.888 22.8797 175.65 22.1741C175.411 21.4685 175.032 20.8189 174.534 20.2651C174.036 19.7113 173.43 19.2649 172.754 18.9533C172.077 18.6416 171.344 18.4711 170.6 18.4524V18.4524ZM169.692 27.2361C169.112 27.2594 168.538 27.1086 168.045 26.8032C167.552 26.4978 167.161 26.0517 166.924 25.5223C166.686 24.993 166.612 24.4046 166.712 23.833C166.811 23.2614 167.08 22.7327 167.483 22.315C167.885 21.8973 168.404 21.6097 168.972 21.4892C169.539 21.3688 170.13 21.4209 170.667 21.6391C171.205 21.8572 171.665 22.2313 171.988 22.7131C172.312 23.195 172.483 23.7626 172.481 24.3428C172.501 24.7191 172.443 25.0955 172.311 25.4485C172.179 25.8015 171.976 26.1237 171.714 26.395C171.453 26.6663 171.138 26.8809 170.79 27.0256C170.442 27.1703 170.068 27.2419 169.692 27.2361V27.2361Z" fill="white"/>
<path d="M187.142 18.6733C187.035 18.6633 186.928 18.6768 186.827 18.7131C186.727 18.7493 186.635 18.8073 186.56 18.8829C186.484 18.9585 186.426 19.0498 186.39 19.1504C186.354 19.251 186.34 19.3583 186.35 19.4647V20.1524C185.929 19.5885 185.374 19.1381 184.735 18.8414C184.096 18.5448 183.394 18.4112 182.691 18.4527C181.949 18.4717 181.219 18.6413 180.544 18.9514C179.87 19.2615 179.265 19.7055 178.768 20.2565C178.27 20.8074 177.89 21.4538 177.65 22.1564C177.41 22.8589 177.315 23.6029 177.372 24.3431C177.315 25.0833 177.41 25.8273 177.65 26.5298C177.89 27.2324 178.27 27.8787 178.768 28.4297C179.265 28.9807 179.87 29.4247 180.544 29.7348C181.219 30.0449 181.949 30.2145 182.691 30.2335C183.394 30.2715 184.095 30.1364 184.733 29.84C185.371 29.5437 185.926 29.0951 186.35 28.5338V29.9999H189.749V18.6733H187.142ZM183.6 27.2364C182.864 27.1872 182.175 26.8602 181.671 26.3218C181.168 25.7834 180.887 25.0738 180.887 24.3366C180.887 23.5994 181.168 22.8898 181.671 22.3514C182.175 21.813 182.864 21.4861 183.6 21.4368C184.335 21.4861 185.024 21.813 185.528 22.3514C186.032 22.8898 186.312 23.5994 186.312 24.3366C186.312 25.0738 186.032 25.7834 185.528 26.3218C185.024 26.8602 184.335 27.1872 183.6 27.2364Z" fill="white"/>
<path d="M196.627 30.2602C199.507 30.2602 201.259 28.7552 201.259 26.3679C201.259 24.7331 200.26 23.6173 198.197 23.1632L196.186 22.7091C195.407 22.5274 195.005 22.2809 195.005 21.8268C195.005 21.3727 195.381 21.0873 196.303 21.0873C197.37 21.1245 198.391 21.5381 199.183 22.255L200.883 19.7639C199.545 18.8284 197.932 18.3713 196.303 18.4664C193.604 18.4664 191.788 19.7639 191.788 22.0604C191.77 22.8755 192.059 23.6677 192.597 24.2803C193.135 24.8929 193.883 25.2813 194.694 25.3688L196.705 25.8489C197.704 26.0694 198.002 26.3679 198.002 26.7571C198.002 27.1463 197.587 27.5226 196.705 27.5226C195.436 27.4977 194.214 27.0399 193.241 26.2251L191.541 28.7162C193.029 29.8425 194.867 30.4076 196.731 30.3121L196.627 30.2602Z" fill="white"/>
<path d="M207.368 30.261C210.249 30.261 212 28.7559 212 26.3686C212 24.7338 211.001 23.618 208.938 23.1639L206.914 22.7098C206.149 22.5282 205.746 22.2817 205.746 21.8276C205.746 21.3735 206.123 21.088 207.044 21.088C208.108 21.1238 209.125 21.5378 209.911 22.2557L211.611 19.7646C210.28 18.8264 208.669 18.3689 207.044 18.4672C204.345 18.4672 202.529 19.7646 202.529 22.0611C202.511 22.8763 202.8 23.6685 203.338 24.2811C203.876 24.8936 204.624 25.2821 205.435 25.3696L207.446 25.8496C208.445 26.0702 208.743 26.3686 208.743 26.7579C208.743 27.1471 208.341 27.5233 207.446 27.5233C206.177 27.4985 204.955 27.0407 203.982 26.2259L202.282 28.717C203.77 29.8433 205.608 30.4084 207.472 30.3129L207.368 30.261Z" fill="white"/>
</svg>
